<svg
	width="30"
	height="30"
	viewBox="0 0 30 30"
	fill="none"
	xmlns="http://www.w3.org/2000/svg"
>
	<path
		d="M3.75 15C3.75 13.4475 4.04583 11.9867 4.6375 10.6175C5.22917 9.24833 6.03208 8.05792 7.04625 7.04625C8.05875 6.03208 9.24917 5.22917 10.6175 4.6375C11.9867 4.04583 13.4475 3.75 15 3.75C17.785 3.75 20.2071 4.62625 22.2663 6.37875C24.3263 8.13125 25.5892 10.3313 26.055 12.9788C26.095 13.1737 26.0658 13.3525 25.9675 13.515C25.8692 13.6767 25.7254 13.7575 25.5363 13.7575C25.3421 13.7575 25.1783 13.6917 25.045 13.56C24.9117 13.4283 24.8221 13.2679 24.7762 13.0788C24.4737 11.4188 23.7937 9.9325 22.7362 8.62C21.6796 7.3075 20.3508 6.335 18.75 5.7025V6.25C18.75 6.9375 18.5054 7.52625 18.0163 8.01625C17.5271 8.50625 16.9383 8.75083 16.25 8.75H13.75V11.25C13.75 11.6042 13.63 11.9013 13.39 12.1413C13.15 12.3813 12.8533 12.5008 12.5 12.5H10V15H11.2975C11.5883 15 11.8292 15.0958 12.02 15.2875C12.2117 15.4792 12.3075 15.72 12.3075 16.01V18.75H11.25L5.25 12.75C5.1875 13.125 5.13042 13.5 5.07875 13.875C5.02708 14.25 5.00083 14.625 5 15C5 17.6375 5.89083 19.9167 7.6725 21.8375C9.45333 23.7567 11.6783 24.8058 14.3475 24.985C14.5375 24.995 14.6937 25.0596 14.8162 25.1787C14.9388 25.2987 15 25.4475 15 25.625C15 25.8025 14.9325 25.9513 14.7975 26.0713C14.6617 26.1904 14.4992 26.245 14.31 26.235C11.3467 26.0517 8.84583 24.8829 6.8075 22.7288C4.76917 20.5746 3.75 17.9983 3.75 15ZM25.8375 25.4713L21.9662 21.6488C21.5929 21.9154 21.1883 22.1238 20.7525 22.2738C20.3167 22.4246 19.8575 22.5 19.375 22.5C18.1492 22.5 17.1133 22.0775 16.2675 21.2325C15.4225 20.3858 15 19.35 15 18.125C15 16.8992 15.4225 15.8633 16.2675 15.0175C17.1142 14.1725 18.15 13.75 19.375 13.75C20.6008 13.75 21.6367 14.1725 22.4825 15.0175C23.3275 15.8642 23.75 16.9 23.75 18.125C23.75 18.6233 23.6708 19.0942 23.5125 19.5375C23.3542 19.9817 23.1333 20.3908 22.85 20.765L26.7213 24.5863C26.8546 24.7029 26.9213 24.8463 26.9213 25.0163C26.9213 25.1863 26.8546 25.3379 26.7213 25.4713C26.6046 25.5879 26.4613 25.6462 26.2913 25.6462C26.1213 25.6462 25.9708 25.5879 25.8375 25.4713ZM19.375 21.25C20.25 21.25 20.9896 20.9479 21.5938 20.3438C22.1979 19.7396 22.5 19 22.5 18.125C22.5 17.25 22.1979 16.5104 21.5938 15.9062C20.9896 15.3021 20.25 15 19.375 15C18.5 15 17.7604 15.3021 17.1562 15.9062C16.5521 16.5104 16.25 17.25 16.25 18.125C16.25 19 16.5521 19.7396 17.1562 20.3438C17.7604 20.9479 18.5 21.25 19.375 21.25Z"
		fill="none"
	/>
</svg>
