<svg
	width="24"
	height="24"
	viewBox="0 0 24 24"
	fill="none"
	xmlns="http://www.w3.org/2000/svg"
>
	<g clip-path="url(#clip0_664_1138)">
		<path
			d="M17.2031 13.3477C16.7969 13.6836 16.4492 14.0586 16.1602 14.4727C15.5117 14.1445 14.8359 13.9023 14.1328 13.7461C13.4297 13.5898 12.7109 13.5078 11.9766 13.5C11.1328 13.5 10.3281 13.6055 9.5625 13.8164C8.79688 14.0273 8.07812 14.3242 7.40625 14.707C6.73438 15.0898 6.13281 15.5547 5.60156 16.1016C5.07031 16.6484 4.60547 17.2539 4.20703 17.918C3.80859 18.582 3.51172 19.3047 3.31641 20.0859C3.12109 20.8672 3.01563 21.6719 3 22.5H1.5C1.5 21.3594 1.66797 20.2617 2.00391 19.207C2.33984 18.1523 2.82422 17.1875 3.45703 16.3125C4.08984 15.4375 4.84375 14.6719 5.71875 14.0156C6.59375 13.3594 7.58594 12.8555 8.69531 12.5039C8.27344 12.2227 7.89844 11.8984 7.57031 11.5312C7.24219 11.1641 6.96094 10.7656 6.72656 10.3359C6.49219 9.90625 6.3125 9.45313 6.1875 8.97656C6.0625 8.5 6 8.00781 6 7.5C6 6.67188 6.15625 5.89453 6.46875 5.16797C6.78125 4.44141 7.21094 3.80859 7.75781 3.26953C8.30469 2.73047 8.94141 2.30078 9.66797 1.98047C10.3945 1.66016 11.1719 1.5 12 1.5C12.8281 1.5 13.6055 1.65625 14.332 1.96875C15.0586 2.28125 15.6914 2.71094 16.2305 3.25781C16.7695 3.80469 17.1992 4.44141 17.5195 5.16797C17.8398 5.89453 18 6.67188 18 7.5C18 8.00781 17.9375 8.5 17.8125 8.97656C17.6875 9.45313 17.5117 9.91016 17.2852 10.3477C17.0586 10.7852 16.7734 11.1836 16.4297 11.543C16.0859 11.9023 15.707 12.2266 15.293 12.5156C15.6289 12.625 15.9531 12.7461 16.2656 12.8789C16.5781 13.0117 16.8906 13.168 17.2031 13.3477ZM7.5 7.5C7.5 8.125 7.61719 8.70703 7.85156 9.24609C8.08594 9.78516 8.40625 10.2617 8.8125 10.6758C9.21875 11.0898 9.69531 11.4141 10.2422 11.6484C10.7891 11.8828 11.375 12 12 12C12.6172 12 13.1992 11.8828 13.7461 11.6484C14.293 11.4141 14.7695 11.0938 15.1758 10.6875C15.582 10.2812 15.9063 9.80469 16.1484 9.25781C16.3906 8.71094 16.5078 8.125 16.5 7.5C16.5 6.88281 16.3828 6.30078 16.1484 5.75391C15.9141 5.20703 15.5938 4.73047 15.1875 4.32422C14.7813 3.91797 14.3008 3.59375 13.7461 3.35156C13.1914 3.10938 12.6094 2.99219 12 3C11.375 3 10.793 3.11719 10.2539 3.35156C9.71484 3.58594 9.23828 3.90625 8.82422 4.3125C8.41016 4.71875 8.08594 5.19922 7.85156 5.75391C7.61719 6.30859 7.5 6.89062 7.5 7.5ZM20.2734 13.4883C20.7891 13.4883 21.2773 13.5859 21.7383 13.7813C22.1992 13.9766 22.5977 14.2461 22.9336 14.5898C23.2695 14.9336 23.5391 15.332 23.7422 15.7852C23.9453 16.2383 24.0469 16.7266 24.0469 17.25C24.0469 17.7656 23.9492 18.25 23.7539 18.7031C23.5586 19.1562 23.2891 19.5547 22.9453 19.8984C22.6016 20.2422 22.1992 20.5117 21.7383 20.707C21.2773 20.9023 20.7891 21.0039 20.2734 21.0117C19.5156 21.0117 18.8242 20.8008 18.1992 20.3789L14.7773 23.8008C14.6289 23.9492 14.4531 24.0234 14.25 24.0234C14.0469 24.0234 13.8711 23.9492 13.7227 23.8008C13.5742 23.6523 13.5 23.4766 13.5 23.2734C13.5 23.0703 13.5742 22.8945 13.7227 22.7461L17.1445 19.3242C16.7227 18.6992 16.5117 18.0078 16.5117 17.25C16.5117 16.7344 16.6094 16.25 16.8047 15.7969C17 15.3438 17.2695 14.9453 17.6133 14.6016C17.957 14.2578 18.3555 13.9883 18.8086 13.793C19.2617 13.5977 19.75 13.4961 20.2734 13.4883ZM20.2734 19.5117C20.5859 19.5117 20.8789 19.4531 21.1523 19.3359C21.4258 19.2188 21.6641 19.0586 21.8672 18.8555C22.0703 18.6523 22.2344 18.4102 22.3594 18.1289C22.4844 17.8477 22.5469 17.5547 22.5469 17.25C22.5469 16.9375 22.4883 16.6445 22.3711 16.3711C22.2539 16.0977 22.0898 15.8594 21.8789 15.6563C21.668 15.4531 21.4297 15.2891 21.1641 15.1641C20.8984 15.0391 20.6016 14.9805 20.2734 14.9883C19.9609 14.9883 19.668 15.0469 19.3945 15.1641C19.1211 15.2813 18.8828 15.4453 18.6797 15.6563C18.4766 15.8672 18.3125 16.1055 18.1875 16.3711C18.0625 16.6367 18.0039 16.9297 18.0117 17.25C18.0117 17.5625 18.0703 17.8555 18.1875 18.1289C18.3047 18.4023 18.4648 18.6406 18.668 18.8438C18.8711 19.0469 19.1133 19.2109 19.3945 19.3359C19.6758 19.4609 19.9688 19.5195 20.2734 19.5117Z"
			fill="#none"
		/>
	</g>
	<defs>
		<clipPath id="clip0_664_1138">
			<rect width="24" height="24" fill="none" />
		</clipPath>
	</defs>
</svg>
