<svg width="56" height="56" viewBox="0 0 56 56" fill="none" xmlns="http://www.w3.org/2000/svg">
<path d="M56 28C56 43.464 43.464 56 28 56C12.536 56 0 43.464 0 28C0 12.536 12.536 0 28 0C43.464 0 56 12.536 56 28Z" fill="#B3BDF1"/>
<path d="M19.7148 24.6367C20.5107 24.6367 21.1748 25.0762 21.5801 25.8379H23.5332V24.0117H24.7637V32.918H23.5332V29.5879H21.6777C21.2773 30.4668 20.5742 30.9746 19.7148 30.9746C18.3672 30.9746 17.4004 29.7539 17.4102 27.8008C17.4004 25.8672 18.3672 24.6367 19.7148 24.6367ZM19.7148 25.7598C19.0508 25.7598 18.5918 26.4824 18.6016 27.8008C18.5918 29.1289 19.0508 29.8418 19.7148 29.8418C20.3887 29.8418 20.8281 29.1289 20.8281 27.8008C20.8281 26.4824 20.3887 25.7598 19.7148 25.7598ZM21.9316 26.8438C21.9854 27.1367 22.0195 27.459 22.0195 27.8008C22.0195 28.0791 21.9951 28.3428 21.9609 28.5918H23.5332V26.8438H21.9316ZM32.9277 24.7051C32.9277 25.75 33.9922 26.9121 36.0332 27.166L35.5449 28.1719C33.9922 27.9473 32.8545 27.2295 32.2734 26.2676C31.6875 27.2295 30.5596 27.9473 29.0215 28.1719L28.5234 27.166C30.5449 26.9121 31.6191 25.75 31.6191 24.7051V24.2754H32.9277V24.7051ZM36.3164 28.8457V29.8613H32.8594V32.8984H31.6289V29.8613H28.2109V28.8457H36.3164Z" fill="white"/>
</svg>
