<svg xmlns="http://www.w3.org/2000/svg" xmlns:xlink="http://www.w3.org/1999/xlink"><symbol viewBox="0 0 36 36" fill="currentColor" id="defaultProfile"><mask id="aa" maskUnits="userSpaceOnUse" x="0" y="0" width="36" height="36"><rect width="36" height="36" rx="72"/></mask><g mask="url(#aa)"><path d="M0 0h36v36H0z"/><rect width="36" height="36" transform="rotate(155 20.61 18.054) scale(1.2)" rx="6"/><g transform="rotate(-5 -26.308 -18.356)"><path d="M15 21c2 1 4 1 6 0" stroke="#FFF" stroke-linecap="round"/><rect x="14" y="14" width="1.5" height="2" rx="1"/><rect x="20" y="14" width="1.5" height="2" rx="1"/></g></g></symbol><symbol fill="currentColor" viewBox="0 0 24 25" id="googleLogo"><path d="M21 12.707c0-.605-.054-1.18-.146-1.74h-8.659v3.457h4.958c-.222 1.134-.873 2.091-1.839 2.743v2.299h2.958C20.004 17.864 21 15.504 21 12.707Z"/><path d="M12.195 21.695c2.483 0 4.56-.827 6.077-2.23l-2.958-2.298c-.827.551-1.877.889-3.119.889-2.398 0-4.429-1.617-5.157-3.801h-3.05v2.368c1.51 3.003 4.614 5.072 8.207 5.072Z"/><path d="M7.038 14.255a5.336 5.336 0 0 1-.29-1.755c0-.613.106-1.203.29-1.755V8.377h-3.05a9.089 9.089 0 0 0 0 8.246l3.05-2.368Z"/><path d="M12.195 6.945c1.357 0 2.567.467 3.525 1.379l2.621-2.62c-1.586-1.487-3.663-2.4-6.146-2.4-3.593 0-6.697 2.07-8.206 5.073l3.05 2.368c.727-2.184 2.758-3.8 5.156-3.8Z"/></symbol><symbol fill="currentColor" viewBox="0 0 19 18" id="kakaoButton"><path fill-rule="evenodd" clip-rule="evenodd" d="M9.5.6C4.53.6.5 3.713.5 7.552c0 2.388 1.558 4.493 3.932 5.745l-.999 3.647c-.088.322.28.58.564.393l4.376-2.89c.37.037.745.057 1.127.057 4.97 0 9-3.113 9-6.952C18.5 3.712 14.47.6 9.5.6Z"/></symbol></svg>