<svg
	width="100%"
	height="100%"
	viewBox="0 0 148 148"
	fill="none"
	xmlns="http://www.w3.org/2000/svg"
>
	<rect width="100%" height="100%" fill="#E5E6E9" />
	<g clip-path="url(#clip0_1227_480)">
		<path
			d="M85.1942 59.4974C86.3696 60.419 87.1796 61.9076 87.5108 63.4664C87.5509 63.4791 87.59 63.4947 87.6278 63.5132L91.3088 65.216C91.5145 65.3105 91.689 65.4619 91.8114 65.6523C91.9339 65.8427 91.9994 66.0642 92 66.2906V88.5512C91.9987 88.7361 91.9545 88.9182 91.871 89.0832C91.7875 89.2482 91.6669 89.3916 91.5187 89.5022C91.3705 89.6127 91.1986 89.6874 91.0167 89.7204C90.8347 89.7534 90.6476 89.7438 90.47 89.6924L80.2658 86.8124L68.1338 90.1568C67.9149 90.2169 67.6835 90.2144 67.466 90.1496L56.8532 86.9906C56.6079 86.9185 56.3924 86.7693 56.2387 86.565C56.085 86.3607 56.0013 86.1123 56 85.8566V63.1964C56 62.4044 56.7704 61.8356 57.539 62.0588L67.8026 65.0486L73.019 63.452C73.0908 63.4308 73.1643 63.4157 73.2386 63.407C73.4402 62.2262 74.0036 61.0922 74.9486 59.987C76.07 58.673 78.0374 57.9026 79.9544 57.8108C81.9434 57.7154 83.4626 58.1402 85.1924 59.4956M58.3994 64.7858V84.9728L67.1654 87.581V67.3364L58.3994 64.7858ZM73.1756 65.891L69.5648 66.9944V87.2966L78.6818 84.7874V78.8564C78.6818 78.2012 79.22 77.6702 79.8824 77.6702C80.5448 77.6702 81.0812 78.2012 81.0812 78.8582V84.5768L89.6006 86.9798V67.0448L87.5846 66.1088C87.5504 66.3068 87.5072 66.5012 87.4532 66.6902C87.0618 68.0704 86.4051 69.361 85.52 70.49L81.0614 76.0574C80.944 76.2038 80.7941 76.3207 80.6235 76.399C80.453 76.4773 80.2665 76.5146 80.079 76.5082C79.8915 76.5017 79.708 76.4516 79.5433 76.3618C79.3785 76.2719 79.237 76.1449 79.13 75.9908L74.963 69.9554C74.2754 68.9942 73.793 68.1374 73.5212 67.3706C73.3506 66.892 73.2347 66.3956 73.1756 65.891ZM80.0696 60.1832C78.7628 60.2462 77.42 60.7718 76.781 61.5188C76.0124 62.4188 75.6344 63.2612 75.5588 64.1144C75.4688 65.1422 75.53 65.8676 75.7856 66.5858C75.9746 67.1168 76.3508 67.79 76.9322 68.6018L80.192 73.3214L83.63 69.0284C84.3236 68.142 84.8378 67.1289 85.1438 66.0458C85.5758 64.5338 84.9242 62.3126 83.7038 61.3586C82.4528 60.3776 81.5078 60.113 80.0714 60.1832M80.3198 61.4378C82.307 61.4378 83.9198 63.0308 83.9198 64.9964C83.9172 65.4665 83.822 65.9314 83.6397 66.3647C83.4573 66.798 83.1914 67.1911 82.8571 67.5216C82.5228 67.852 82.1266 68.1134 81.6913 68.2907C81.2559 68.468 80.7899 68.5578 80.3198 68.555C78.3326 68.555 76.7198 66.962 76.7198 64.9964C76.7198 63.0308 78.3326 61.4378 80.3198 61.4378ZM80.3198 63.8102C80.1631 63.8092 80.0077 63.8392 79.8626 63.8983C79.7174 63.9574 79.5853 64.0445 79.4738 64.1546C79.3623 64.2648 79.2736 64.3958 79.2128 64.5402C79.1519 64.6847 79.1201 64.8397 79.1192 64.9964C79.1192 65.6516 79.6574 66.1826 80.3198 66.1826C80.4765 66.1833 80.6318 66.1531 80.7769 66.0938C80.922 66.0345 81.0539 65.9472 81.1652 65.8369C81.2766 65.7266 81.3651 65.5954 81.4257 65.4509C81.4863 65.3064 81.5179 65.1513 81.5186 64.9946C81.5162 64.6787 81.3887 64.3767 81.164 64.1546C80.9393 63.9326 80.6357 63.8088 80.3198 63.8102Z"
			fill="#767676"
		/>
	</g>
	<defs>
		<clipPath id="clip0_1227_480">
			<rect width="36" height="36" fill="white" transform="translate(56 56)" />
		</clipPath>
	</defs>
</svg>
