<svg width="24" height="25" viewBox="0 0 24 25" fill="none" xmlns="http://www.w3.org/2000/svg">
<path d="M21 12.707C21 12.1016 20.9463 11.5269 20.8544 10.9675H12.1954V14.4235H17.1532C16.931 15.5576 16.2797 16.5154 15.3141 17.1668V19.4656H18.272C20.0038 17.8641 21 15.5039 21 12.707Z" fill="#4285F4"/>
<path d="M12.1954 21.6955C14.6782 21.6955 16.7548 20.8679 18.272 19.4656L15.3142 17.1668C14.4866 17.7185 13.4368 18.0556 12.1954 18.0556C9.79695 18.0556 7.7663 16.4388 7.03833 14.2549H3.98853V16.6227C5.4981 19.6265 8.60155 21.6955 12.1954 21.6955Z" fill="#34A853"/>
<path d="M7.03831 14.2548C6.84674 13.7031 6.74712 13.1131 6.74712 12.5C6.74712 11.887 6.8544 11.297 7.03831 10.7453V8.37744H3.9885C3.36015 9.61882 3 11.0135 3 12.5C3 13.9866 3.36015 15.3813 3.9885 16.6226L7.03831 14.2548Z" fill="#FBBC05"/>
<path d="M12.1954 6.94453C13.5517 6.94453 14.7625 7.41197 15.7203 8.32384L18.341 5.70315C16.7548 4.21657 14.6782 3.30469 12.1954 3.30469C8.60155 3.30469 5.4981 5.37365 3.98853 8.37748L7.03833 10.7453C7.7663 8.56139 9.79695 6.94453 12.1954 6.94453Z" fill="#EA4335"/>
</svg>
