<svg
	width="100%"
	height="100%"
	viewBox="0 0 16 16"
	fill="none"
	xmlns="http://www.w3.org/2000/svg"
>
	<path
		d="M11 2C10.4111 1.99991 9.83093 2.14192 9.30865 2.41397C8.78638 2.68601 8.33746 3.08007 8.00001 3.56267C7.66256 3.08007 7.21364 2.68601 6.69137 2.41397C6.16909 2.14192 5.58889 1.99991 5.00001 2C4.02755 2 3.09492 2.38631 2.40729 3.07394C1.71965 3.76158 1.33334 4.69421 1.33334 5.66667C1.33334 9.47933 5.66668 12.6253 8.00001 14.2333C10.3333 12.6253 14.6667 9.47933 14.6667 5.66667C14.6667 5.18515 14.5718 4.70835 14.3876 4.26349C14.2033 3.81863 13.9332 3.41442 13.5927 3.07394C13.2523 2.73346 12.848 2.46338 12.4032 2.27911C11.9583 2.09484 11.4815 2 11 2Z"
		fill="none"
		stroke="none"
		stroke-width="1"
	/>
</svg>
