<svg width="12" height="12" viewBox="0 0 12 12" fill="none" xmlns="http://www.w3.org/2000/svg">
<path d="M6.867 10.908C8.17425 9.7575 10.5 7.407 10.5 5.25C10.5 4.05653 10.0259 2.91193 9.18198 2.06802C8.33807 1.22411 7.19347 0.75 6 0.75C4.80653 0.75 3.66193 1.22411 2.81802 2.06802C1.97411 2.91193 1.5 4.05653 1.5 5.25C1.5 7.407 3.825 9.7575 5.133 10.908C5.37158 11.121 5.6802 11.2387 6 11.2387C6.3198 11.2387 6.62842 11.121 6.867 10.908ZM4.5 5.25C4.5 4.85218 4.65804 4.47064 4.93934 4.18934C5.22064 3.90804 5.60218 3.75 6 3.75C6.39782 3.75 6.77936 3.90804 7.06066 4.18934C7.34196 4.47064 7.5 4.85218 7.5 5.25C7.5 5.64782 7.34196 6.02936 7.06066 6.31066C6.77936 6.59196 6.39782 6.75 6 6.75C5.60218 6.75 5.22064 6.59196 4.93934 6.31066C4.65804 6.02936 4.5 5.64782 4.5 5.25Z" fill="#FFC022"/>
</svg>
