<?xml version="1.0" standalone="no"?>
<!DOCTYPE svg PUBLIC "-//W3C//DTD SVG 20010904//EN"
 "http://www.w3.org/TR/2001/REC-SVG-20010904/DTD/svg10.dtd">
<svg version="1.0" xmlns="http://www.w3.org/2000/svg"
 width="800.000000pt" height="673.000000pt" viewBox="0 0 800.000000 673.000000"
 preserveAspectRatio="xMidYMid meet">

<g transform="translate(0.000000,673.000000) scale(0.100000,-0.100000)"
fill="#000000" stroke="none">
<path d="M5681 6659 c-36 -4 -76 -13 -90 -18 -25 -10 -52 -14 -201 -26 -87 -7
-130 -15 -130 -26 0 -12 -69 -29 -120 -29 -32 0 -50 -6 -62 -19 -9 -11 -45
-26 -83 -34 -37 -9 -72 -22 -78 -31 -7 -9 -33 -20 -59 -25 -55 -10 -86 -30
-67 -42 7 -4 -8 -10 -36 -15 -32 -4 -56 -15 -70 -30 -12 -13 -27 -24 -32 -24
-5 0 -27 -15 -48 -34 -21 -19 -41 -33 -44 -32 -13 8 -51 -14 -51 -28 0 -9 -11
-18 -24 -22 -14 -3 -32 -17 -41 -30 -8 -13 -21 -24 -29 -24 -7 0 -18 -11 -24
-25 -7 -14 -23 -30 -36 -35 -13 -5 -27 -18 -30 -28 -4 -11 -16 -22 -27 -25
-11 -3 -23 -15 -26 -26 -3 -12 -11 -21 -18 -21 -7 0 -20 -15 -29 -34 -9 -19
-24 -37 -34 -40 -17 -6 -38 -35 -79 -108 -12 -21 -25 -38 -29 -38 -11 2 -24
-23 -24 -48 0 -12 -8 -26 -17 -29 -28 -10 -42 -35 -43 -71 0 -22 -8 -41 -25
-56 -15 -14 -25 -34 -25 -50 0 -14 -11 -54 -26 -89 -14 -34 -30 -98 -35 -142
-13 -98 -14 -106 -21 -125 -17 -44 -30 -132 -25 -171 3 -24 14 -74 25 -111 10
-37 20 -99 21 -139 2 -67 12 -106 32 -119 5 -3 15 -36 23 -74 9 -44 21 -72 34
-81 12 -9 21 -31 25 -57 4 -29 14 -50 30 -63 14 -11 28 -35 32 -52 3 -18 11
-31 17 -30 12 3 25 -19 33 -55 3 -16 12 -28 20 -28 8 0 26 -18 40 -40 14 -22
29 -40 34 -40 6 0 13 -9 16 -20 3 -11 13 -20 21 -20 8 0 17 -6 20 -14 8 -21
88 -101 108 -109 10 -4 20 -16 23 -26 3 -11 16 -22 29 -25 13 -4 24 -13 24
-21 0 -8 4 -15 9 -15 4 0 25 -16 45 -35 21 -19 43 -35 50 -35 7 0 30 -13 51
-30 21 -16 44 -30 52 -30 7 0 18 -11 24 -24 9 -18 22 -26 56 -31 33 -5 47 -12
55 -30 8 -18 20 -24 60 -27 35 -4 53 -11 64 -27 8 -11 21 -21 29 -21 20 0 28
-18 27 -59 -1 -23 -9 -42 -21 -52 -11 -9 -23 -29 -27 -45 -4 -16 -18 -38 -31
-49 l-23 -21 24 1 c13 0 36 12 50 27 14 16 32 28 40 28 8 0 26 11 38 23 13 13
36 27 51 31 14 3 31 15 37 26 9 17 21 20 70 20 41 0 64 -5 75 -16 22 -22 76
-33 164 -34 82 0 203 -19 196 -31 -15 -24 313 -21 342 3 13 10 119 25 243 33
38 2 81 12 104 24 21 11 69 23 107 27 38 4 69 10 69 15 0 14 37 29 96 40 36 7
65 19 81 35 16 16 35 24 57 24 23 0 42 9 64 30 18 17 42 30 55 30 13 0 34 11
47 25 13 14 28 25 35 25 6 0 25 14 43 30 18 17 39 30 46 30 15 0 54 30 106 83
20 20 40 37 44 37 11 0 86 80 86 91 0 5 8 9 18 9 11 0 24 11 30 25 6 14 16 25
22 25 6 0 16 14 21 30 6 17 17 30 24 30 8 0 24 15 36 33 13 17 29 35 35 40 7
4 18 23 24 42 6 19 20 40 30 45 10 5 21 21 24 34 3 14 17 36 29 49 14 13 27
41 31 66 4 29 12 45 24 48 13 3 21 23 30 71 7 36 19 73 27 82 20 22 34 95 35
178 0 39 4 72 8 72 12 0 32 93 32 149 0 26 -7 74 -16 106 -9 33 -19 103 -24
155 -6 77 -12 103 -32 132 -15 21 -28 58 -31 88 -4 37 -13 59 -30 74 -14 13
-27 39 -31 64 -3 24 -13 45 -20 48 -8 3 -22 23 -30 45 -9 21 -22 39 -29 39 -7
0 -18 20 -25 45 -8 29 -17 45 -28 45 -9 0 -21 13 -27 29 -6 16 -20 35 -31 41
-12 6 -39 34 -61 61 -22 27 -48 51 -57 55 -10 3 -18 11 -18 17 0 7 -25 32 -55
57 -30 25 -77 66 -105 93 -27 26 -56 47 -64 47 -15 0 -105 58 -132 84 -8 9
-27 19 -42 23 -15 3 -37 17 -50 31 -16 16 -38 26 -67 29 -25 3 -54 15 -70 29
-16 13 -36 24 -46 24 -28 0 -112 31 -124 45 -5 7 -37 15 -70 18 -77 6 -102 13
-119 30 -10 9 -49 17 -113 21 -132 9 -254 27 -248 36 2 4 -32 8 -76 9 -44 1
-86 3 -92 5 -7 2 -41 0 -76 -5z m-298 -669 l37 -40 0 -103 c0 -96 -2 -106 -24
-130 -14 -15 -27 -35 -31 -46 -3 -10 -16 -21 -28 -25 -21 -5 -21 -6 9 -35 17
-16 42 -33 56 -36 19 -5 28 -15 32 -37 9 -44 7 -78 -3 -78 -5 0 -11 -9 -14
-20 -4 -17 -14 -20 -59 -22 -29 -1 -62 -2 -72 -2 -27 -2 -43 -30 -27 -49 8
-11 38 -16 107 -19 109 -3 123 -13 122 -79 -1 -77 -27 -86 -229 -81 -134 3
-137 4 -148 28 -6 14 -11 37 -11 51 0 15 -8 35 -17 45 -19 21 -34 107 -37 204
-1 75 18 104 70 104 40 0 51 14 25 32 -33 23 -41 63 -41 191 0 143 9 167 66
167 19 0 34 -4 34 -10 0 -5 6 -10 14 -10 7 0 19 -7 26 -15 16 -20 29 -19 37 3
10 27 35 52 52 52 9 0 33 -18 54 -40z m1115 -62 c17 -28 21 -54 24 -175 2
-102 0 -145 -9 -154 -14 -14 -50 -16 -104 -5 -46 8 -49 17 -49 169 0 133 13
183 52 190 55 10 66 7 86 -25z m-442 13 c16 -5 56 -12 89 -15 33 -4 66 -12 73
-20 8 -8 17 -36 20 -62 4 -39 13 -57 43 -89 43 -44 50 -80 22 -107 -10 -10
-27 -26 -37 -38 -23 -24 -52 -26 -64 -4 -8 15 -11 15 -31 -5 -11 -11 -32 -21
-46 -21 -16 0 -25 -6 -25 -15 0 -8 -1 -15 -3 -15 -11 0 -82 42 -89 52 -6 10
-8 10 -8 1 0 -7 -11 -13 -24 -13 -21 0 -24 -6 -30 -54 -6 -44 -11 -55 -29 -60
-42 -11 -85 -6 -110 14 -27 22 -47 26 -47 10 0 -5 -19 -14 -42 -20 -79 -19
-118 -33 -118 -42 0 -17 -49 -27 -79 -17 -22 8 -31 18 -35 45 -4 19 -4 39 -1
44 3 5 10 37 15 72 14 98 22 128 31 128 4 0 17 20 28 45 26 60 60 62 114 6 30
-32 37 -45 37 -79 0 -36 4 -44 30 -57 26 -13 30 -21 30 -55 0 -22 5 -40 10
-40 6 0 10 52 10 135 0 176 9 194 96 195 38 0 50 -13 59 -66 6 -37 10 -42 37
-46 37 -6 78 1 78 13 0 5 -6 9 -13 9 -13 0 -44 21 -77 52 -15 13 -17 23 -10
53 9 39 35 75 55 75 7 0 25 -4 41 -9z m965 -88 c11 -12 14 -60 14 -208 0 -211
-4 -225 -57 -225 -38 0 -87 29 -94 55 -6 26 -7 80 -5 238 1 101 4 127 15 127
7 0 27 7 42 15 38 19 68 19 85 -2z m-2061 -42 c18 -35 19 -53 14 -163 -6 -152
-14 -168 -83 -168 -31 0 -53 5 -61 15 -15 18 -21 240 -7 302 9 45 17 50 79 52
34 1 39 -3 58 -38z m-284 -35 c11 -8 29 -23 41 -33 19 -15 22 -29 24 -93 2
-122 0 -139 -21 -160 -24 -24 -101 -28 -120 -6 -6 8 -15 36 -18 63 -7 43 -10
48 -40 54 -40 8 -58 31 -66 81 -6 39 4 77 26 95 30 25 144 25 174 -1z m2118 8
c9 -8 16 -20 16 -25 0 -5 7 -9 15 -9 19 0 35 -40 35 -88 0 -50 -10 -82 -25
-82 -7 0 -19 -21 -27 -47 -10 -33 -23 -52 -41 -61 -14 -7 -29 -21 -32 -32 -4
-14 -16 -21 -38 -22 -70 -4 -91 3 -126 39 -32 33 -35 40 -35 102 -1 77 9 121
27 121 7 0 21 16 30 35 9 19 22 35 28 35 6 0 24 11 41 25 35 30 107 35 132 9z
m-514 -218 c7 -9 13 -46 14 -83 3 -68 3 -68 33 -71 23 -2 38 4 57 23 14 14 26
21 26 15 0 -5 9 -10 20 -10 11 0 20 -5 20 -11 0 -6 13 -22 30 -36 24 -20 29
-30 24 -51 -4 -15 -13 -32 -20 -38 -8 -6 -14 -16 -14 -21 0 -24 -32 -33 -131
-38 -110 -7 -138 -1 -179 35 -24 20 -25 28 -28 142 -4 143 0 152 81 156 39 2
57 -2 67 -12z m-1083 -748 c9 -16 8 -351 -1 -367 -4 -6 -24 -11 -45 -11 -43 0
-79 31 -96 83 -15 49 -54 49 -102 0 -21 -21 -43 -47 -48 -57 -9 -15 -26 -20
-86 -24 -117 -7 -119 -5 -119 133 l0 115 38 38 c31 32 46 40 89 45 46 5 56 3
81 -18 20 -17 48 -27 86 -31 60 -7 57 -10 61 49 1 15 4 28 6 30 2 1 13 7 24
14 27 16 102 16 112 1z m317 -22 c20 -18 36 -41 36 -50 0 -9 7 -16 15 -16 22
0 35 -34 35 -95 0 -49 -3 -57 -22 -64 -23 -9 -23 -9 5 -15 75 -17 76 -17 88 6
7 13 19 28 28 35 23 18 82 15 111 -5 22 -15 25 -25 27 -81 2 -38 8 -68 15 -72
7 -4 48 -7 92 -6 l79 2 -2 140 c-3 159 4 176 75 190 34 6 41 3 61 -20 21 -24
23 -37 25 -158 2 -175 -1 -206 -20 -233 -18 -24 -65 -33 -77 -14 -11 17 -24
11 -31 -15 -10 -39 -70 -56 -189 -53 -97 3 -101 4 -142 37 -25 20 -44 44 -46
60 -4 24 -9 -31 -13 -124 0 -22 -2 -59 -2 -83 -2 -36 -6 -45 -32 -60 -16 -9
-30 -22 -30 -28 0 -17 -21 -23 -109 -30 -110 -9 -147 4 -163 59 -6 23 -18 50
-27 60 -12 15 -15 42 -13 130 1 61 -2 114 -6 117 -9 6 -52 74 -52 82 0 5 30
41 64 78 21 22 34 59 41 111 3 28 14 54 25 64 11 10 20 23 20 29 0 6 7 22 16
34 24 35 74 30 118 -12z m1168 23 c23 -10 58 -67 58 -94 0 -7 8 -16 18 -19 19
-7 62 -68 62 -90 0 -30 -24 -67 -47 -72 -22 -6 -30 -23 -34 -69 -3 -42 0 -45
49 -45 50 0 72 -12 72 -41 0 -10 9 -24 21 -32 22 -16 24 -64 2 -60 -6 1 -13
-10 -17 -25 -9 -44 -21 -55 -63 -55 -57 0 -79 10 -93 42 -11 26 -15 28 -50 24
-22 -3 -47 -2 -57 2 -30 14 -66 15 -81 2 -9 -7 -59 -13 -121 -15 -95 -4 -109
-2 -131 16 l-25 20 0 186 c0 230 -6 221 133 221 53 0 110 -2 127 -5 29 -5 30
-4 38 46 6 38 14 54 30 62 29 14 80 15 109 1z m-1898 -405 c9 -8 16 -22 16
-30 0 -21 21 -17 27 6 3 10 19 24 37 29 32 11 195 8 231 -4 12 -3 30 -28 43
-54 12 -27 30 -51 41 -54 14 -3 20 -16 23 -48 9 -92 -12 -121 -79 -112 -25 4
-33 2 -33 -11 0 -24 -33 -36 -103 -36 -54 0 -67 -3 -78 -21 -17 -24 -74 -37
-137 -31 -39 4 -46 9 -76 57 -27 41 -34 64 -36 111 -6 122 -2 142 33 179 35
37 66 44 91 19z"/>
<path d="M5498 4563 c7 -3 16 -2 19 1 4 3 -2 6 -13 5 -11 0 -14 -3 -6 -6z"/>
<path d="M5477 4383 c-10 -10 -8 -41 2 -48 17 -10 33 31 17 44 -7 6 -16 8 -19
4z"/>
<path d="M6505 4560 c-3 -5 -28 -10 -56 -10 l-49 0 0 -54 c0 -61 1 -62 80 -61
l55 0 3 68 c2 54 0 67 -12 67 -8 0 -18 -4 -21 -10z"/>
<path d="M2079 6162 c-17 -8 -31 -19 -94 -79 -25 -23 -45 -47 -45 -53 0 -24
-32 -70 -48 -70 -18 0 -125 52 -149 72 -19 15 -28 4 -50 -62 -16 -48 -22 -55
-46 -58 -16 -2 -34 2 -42 8 -7 6 -57 17 -112 25 -54 7 -117 20 -141 29 -49 18
-189 23 -205 7 -12 -12 -13 -62 -2 -103 10 -39 -27 -56 -87 -38 -80 22 -108
24 -128 5 -26 -23 -26 -75 0 -108 11 -14 20 -37 20 -52 0 -35 -41 -75 -79 -75
-36 0 -81 -16 -81 -29 0 -6 12 -16 27 -23 44 -21 39 -42 -19 -84 -29 -21 -62
-43 -73 -49 -13 -7 -20 -21 -20 -40 0 -23 7 -33 30 -43 85 -40 125 -83 125
-138 0 -14 9 -56 19 -92 12 -40 24 -132 31 -227 7 -88 14 -163 16 -167 2 -4
30 -12 61 -18 40 -9 64 -20 83 -41 15 -17 39 -32 53 -35 l27 -4 0 340 0 340
23 15 c23 15 317 40 442 37 28 0 75 6 106 13 45 12 338 22 462 16 10 -1 22
-13 27 -27 6 -15 21 -41 33 -58 12 -17 27 -40 32 -51 20 -38 40 -24 43 30 4
75 10 95 31 95 10 0 26 -9 36 -20 28 -31 45 -25 45 14 0 61 18 69 175 82 44 3
127 17 185 30 58 12 153 26 212 30 l106 7 16 -31 c9 -17 16 -39 16 -49 0 -10
6 -28 14 -39 8 -11 23 -52 32 -90 10 -38 24 -77 32 -86 8 -9 21 -47 28 -84 8
-37 23 -82 34 -99 11 -18 20 -41 20 -50 0 -22 22 -88 32 -95 4 -3 14 -32 22
-64 18 -67 22 -74 37 -59 13 13 13 265 -1 423 -12 136 -13 139 -11 167 0 12
21 41 46 65 63 61 60 97 -10 121 -65 23 -66 37 -7 105 92 106 69 136 -102 134
-55 0 -108 4 -117 9 -25 13 -37 63 -37 144 1 69 -33 208 -54 221 -5 3 -24 6
-42 6 -38 0 -91 -35 -178 -118 -32 -30 -63 -54 -68 -54 -12 0 -48 36 -88 88
-21 28 -31 33 -60 30 -32 -3 -36 -7 -46 -43 -10 -33 -16 -41 -39 -43 -28 -3
-91 26 -140 65 -16 13 -33 23 -39 23 -5 0 -33 12 -62 27 -43 22 -67 27 -146
29 -52 2 -102 0 -111 -4z"/>
<path d="M2895 5263 c-95 -23 -100 -25 -80 -34 24 -9 186 -12 210 -3 41 16
-78 50 -130 37z"/>
<path d="M1435 5093 c-30 -8 -47 -25 -36 -36 10 -10 177 -11 192 -1 20 12 5
21 -55 32 -66 13 -69 13 -101 5z"/>
<path d="M2914 4758 c-68 -41 -114 -115 -114 -181 0 -68 51 -145 122 -182 70
-37 110 -36 178 4 75 44 124 125 118 191 -7 68 -52 132 -119 169 -74 41 -118
40 -185 -1z"/>
<path d="M1540 4611 c-54 -17 -110 -62 -140 -113 -41 -70 -38 -131 9 -200 66
-97 186 -124 280 -62 48 32 101 122 101 173 0 68 -51 142 -125 180 -61 32 -81
35 -125 22z"/>
<path d="M3291 3419 c-14 -5 -31 -19 -38 -29 -8 -11 -18 -20 -23 -20 -5 0 -35
-25 -66 -55 -32 -30 -67 -58 -78 -61 -12 -4 -34 -17 -49 -30 -16 -13 -41 -27
-55 -30 -15 -4 -39 -15 -54 -26 -31 -21 -188 -52 -263 -52 -92 1 -315 34 -340
50 -14 9 -44 20 -67 26 -24 5 -59 20 -78 33 -38 26 -113 42 -152 32 -41 -11
-61 -98 -38 -164 11 -31 88 -95 130 -108 14 -4 35 -16 48 -26 12 -9 55 -23 95
-29 39 -7 82 -18 94 -26 20 -12 58 -17 240 -28 95 -6 247 9 275 28 14 9 51 21
84 27 121 22 278 120 362 225 13 16 34 44 49 62 30 38 41 108 24 150 -10 23
-58 64 -73 61 -1 0 -14 -5 -27 -10z"/>
<path d="M1920 2530 c0 -5 7 -10 16 -10 8 0 12 5 9 10 -3 6 -10 10 -16 10 -5
0 -9 -4 -9 -10z"/>
<path d="M3390 1506 c0 -9 5 -16 10 -16 6 0 10 4 10 9 0 6 -4 13 -10 16 -5 3
-10 -1 -10 -9z"/>
<path d="M3405 852 c-32 -4 -60 -22 -34 -22 26 0 51 -36 60 -86 5 -26 16 -52
25 -59 12 -8 19 -38 26 -111 5 -54 16 -133 25 -174 20 -91 19 -218 -2 -285 -8
-27 -15 -65 -15 -82 l0 -33 64 0 64 0 7 125 c4 69 4 207 0 307 -5 148 -10 191
-25 223 -21 45 -27 68 -34 139 -3 27 -8 51 -11 55 -7 6 -100 8 -150 3z"/>
<path d="M2198 836 c-104 -7 -128 -11 -133 -25 -2 -9 -6 -194 -7 -411 l-3
-395 46 -3 46 -3 17 58 c10 34 21 125 27 220 6 114 15 181 30 230 12 37 24
105 28 150 5 65 11 87 29 106 12 13 22 29 22 35 0 25 80 31 433 33 169 1 305
4 302 8 -10 9 -691 7 -837 -3z"/>
<path d="M3118 843 c6 -2 18 -2 25 0 6 3 1 5 -13 5 -14 0 -19 -2 -12 -5z"/>
</g>
</svg>
